<svg xmlns="http://www.w3.org/2000/svg" width="64" height="64" viewBox="0 0 16.933 16.933" version="1.1" id="svg8"><defs id="defs2"><style id="style202">.cls-1{stroke:#3c4044;stroke-linecap:round;stroke-linejoin:round}.cls-6{fill:#ffc444}.cls-7{fill:#ffe76e}.cls-8{fill:#d4ffd4}.cls-9{fill:#ffbdbd}.cls-10{fill:#bbf1ff}.cls-11{fill:#fff4c5}.cls-1{fill:#9293a5}.cls-2{fill:#6f7188}.cls-3{fill:#eae2f9}.cls-4{fill:#f94060}.cls-5{fill:#c0c3ee}</style></defs><g id="layer1" transform="translate(3.455 -216.673)"><g id="g232" transform="matrix(.70528 0 0 .68826 43.01 174.22)"><g id="Layer_2" data-name="Layer 2" transform="matrix(.37514 0 0 .38442 2.958 -24.583)"><g id="g805"><g id="g836"><g id="g820"><g id="g979" transform="translate(-43.77 -93.014)"><g id="dollar-exchange"><g id="g956"><g id="_x32_0" transform="matrix(.2411 0 0 .23986 -168.005 289.45)"><path id="path945" style="fill:#e52e4d;fill-opacity:1" d="m144.328 240.288-27.06-3.393c6.564-67.615 63.564-120.418 132.879-120.307 45.119.068 84.888 22.615 108.957 56.965l15.359-10.718c3.009-2.094 5.47-.581 5.47 3.351l-.008 57.487c0 3.94-3.026 6.051-6.726 4.692l-53.949-19.846c-3.701-1.35-4.273-4.188-1.248-6.282l18.743-13.085c-19.137-27.307-50.76-45.23-86.649-45.282-55.375-.093-100.888 42.291-105.768 96.418z"/><path id="path947" style="fill:#00ac00;fill-opacity:1" d="M355.66 259.545c-4.812 54.205-50.35 96.674-105.777 96.581-35.889-.06-67.504-17.975-86.64-45.274l18.735-13.085c3.017-2.103 2.453-4.931-1.248-6.291l-53.956-19.837c-3.692-1.359-6.718.752-6.718 4.692l-.017 57.478c.017 3.94 2.462 5.453 5.47 3.342l15.359-10.701c24.068 34.342 63.854 56.897 108.965 56.965 69.35.102 126.366-52.743 132.887-120.392z"/><linearGradient y2="245.818" y1="245.818" x2="309.549" x1="189.849" id="_x24__2_" gradientUnits="userSpaceOnUse"><stop id="stop949" style="stop-color:#fff" offset=".5"/><stop id="stop951" style="stop-color:#ebebeb" offset=".5"/></linearGradient><path style="fill:#fff;fill-opacity:.94117647" id="_x24__1_" d="M249.523 185.981c-33.042.094-59.769 26.957-59.675 60.008.094 33.051 26.966 59.76 60.008 59.666 33.06-.085 59.777-26.948 59.692-59.999-.093-33.051-26.982-59.769-60.025-59.675zm28.317 77.572c-.453 4.778-2.282 8.88-5.488 12.316-3.213 3.427-7.889 5.607-14.034 6.521v6.675l-12.658-.102v-6.573c-7.136-1.308-12.179-4.41-15.154-9.324-2.974-4.898-4.461-9.838-4.461-14.812h12.752c0 3.077.632 5.53 1.906 7.359 1.282 1.837 2.923 3.213 4.957 4.128v-19.436c-.923-.325-1.846-.666-2.795-1.026-.957-.359-1.846-.701-2.701-1.034-4.317-1.701-7.624-4.154-9.906-7.35-2.282-3.205-3.273-7.196-2.949-11.974.196-3.855 1.769-7.667 4.718-11.427 2.94-3.77 7.487-6.231 13.632-7.41v-6.273h12.658v6.376c6.812 1.504 11.419 4.787 13.829 9.855 2.427 5.077 3.504 9.086 3.248 12.017h-11.975c0-2.094-.376-4-1.128-5.726-.752-1.735-2.077-3.137-3.974-4.18v19.23c1.308.385 2.598.838 3.872 1.325a50.857 50.857 0 0 1 3.778 1.615c3.991 1.837 7.102 4.419 9.324 7.752 2.222 3.333 3.078 7.162 2.549 11.478zm-13.838-5.444c.863 1.607 1.129 3.487.786 5.641-.128 1.445-.735 2.684-1.82 3.726-1.06 1.052-2.615 1.923-4.65 2.65v-16.188c.393.196.632.316.735.351.094.034.214.077.342.145 2.222.846 3.761 2.077 4.607 3.675zm-18.342-36.547v16.188c-1.769-.915-3.196-1.923-4.316-3.034-1.102-1.119-1.667-2.684-1.667-4.709 0-1.837.479-3.453 1.419-4.854.949-1.42 2.47-2.608 4.564-3.591z"/></g></g></g></g></g></g></g></g></g></g></svg>