<svg xmlns="http://www.w3.org/2000/svg" width="64" height="64" viewBox="0 0 16.933 16.933"><path d="M22.876 144.975a1.22.97 0 0 0 .4.205 1.22.97 0 0 0 .926 0 1.22.97 0 0 0 .406-.205l3.652-2.903a1.225.973 0 0 0-1.727-1.372l-1.575 1.258v-3.474a1.22.97 0 0 0-2.436 0v3.474l-1.57-1.261a1.22.97 0 0 0-1.732 0 1.22.97 0 0 0 0 1.37zm.866 6.085a12.185 9.676 0 1 0-12.185-9.676 12.185 9.676 0 0 0 12.185 9.676zm0-17.414a9.75 7.742 0 1 1-9.75 7.738 9.75 7.742 0 0 1 9.75-7.738z" style="fill:#e52e4d;stroke-width:4.10375309" transform="matrix(.69482 0 0 .875 -8.03 -115.244)"/></svg>