<svg xmlns="http://www.w3.org/2000/svg" width="315.502" height="55" viewBox="0 0 83.477 14.552" version="1.1" id="svg8"><defs id="defs2"><style id="style202">.cls-3{fill:#eae2f9}</style></defs><g id="layer1" transform="translate(-76.846 -181.194)"><g id="g232" transform="matrix(.70528 0 0 .68826 43.01 174.22)"><g id="Layer_2" data-name="Layer 2" transform="matrix(.37514 0 0 .38442 2.958 -24.583)"><g id="g805"><g id="g836"><g id="g820"><g id="g859"><g id="Calculator" transform="matrix(3.125 0 0 2.61905 107.938 86.38)"><path id="path749" d="M5.25 2h13.22a.89.89 0 0 1 .89.89v18.22a.89.89 0 0 1-.89.89H5.25a.89.89 0 0 1-.89-.89V2.89A.89.89 0 0 1 5.25 2" style="fill:#9293a5;stroke:#3c4044;stroke-linecap:round;stroke-linejoin:round"/><path id="path751" d="M15 2v20h3.46a.89.89 0 0 0 .89-.89V2.89a.89.89 0 0 0-.88-.89Z" style="fill:#6f7188"/><path id="rect753" class="cls-3" style="fill:#eae2f9" d="M6.14 10.83h11.44v9.34H6.14z"/><path id="rect755" class="cls-3" style="fill:#eae2f9" d="M6.14 4h11.44v4.71H6.14z"/><path id="rect757" style="fill:#f94060" d="M15.01 10.83h2.57v9.34h-2.57z"/><path id="rect759" style="fill:#c0c3ee" d="M15.01 4h2.57v4.71h-2.57z"/><path id="path761" d="M5.25 22.5h13.22a1.39 1.39 0 0 0 1.39-1.39V2.89a1.39 1.39 0 0 0-1.39-1.39H5.25a1.4 1.4 0 0 0-1.39 1.39v18.22a1.39 1.39 0 0 0 1.39 1.39ZM4.86 2.89a.4.4 0 0 1 .39-.39h13.22a.39.39 0 0 1 .39.39v18.22a.39.39 0 0 1-.39.39H5.25a.4.4 0 0 1-.39-.39Z"/><path id="path763" d="M6.14 20.67h11.44a.5.5 0 0 0 .5-.5v-9.34a.5.5 0 0 0-.5-.5H6.14a.5.5 0 0 0-.5.5v9.34a.5.5 0 0 0 .5.5zm9.37-9.34h1.57v3.83h-1.57zm0 4.83h1.57v3.51h-1.57zm-2.89-4.83h1.89v2.15h-1.89zm0 3.15h1.89v2h-1.89zm0 3h1.89v2.15h-1.89zm-3-6.19h2v2.15h-2zm0 3.15h2v2h-2zm0 3h2v2.15h-2zm-2.98-6.11h1.94v2.15H6.64Zm0 3.15h1.94v2H6.64Zm0 3h1.94v2.15H6.64Z"/><path id="path765" d="M6.14 9.21h11.44a.5.5 0 0 0 .5-.5V4a.5.5 0 0 0-.5-.5H6.14a.5.5 0 0 0-.5.5v4.71a.5.5 0 0 0 .5.5zm.5-4.71h10.44v3.71H6.64Z"/><path id="path767" d="M15.65 6.77h-.51a.5.5 0 0 0-.5.5.5.5 0 0 0 .5.5h.51a.5.5 0 0 0 .5-.5.51.51 0 0 0-.5-.5z"/></g><text xml:space="preserve" style="font-style:normal;font-variant:normal;font-weight:400;font-stretch:normal;font-size:42.66666794px;line-height:0;font-family:sans-serif;-inkscape-font-specification:sans-serif;letter-spacing:0;word-spacing:0;fill:#000;fill-opacity:1;stroke:none" x="176.558" y="130" id="text790"><tspan id="tspan788" x="176.558" y="130" style="font-style:normal;font-variant:normal;font-weight:700;font-stretch:normal;font-size:32px;font-family:Ubuntu;-inkscape-font-specification:'Ubuntu Bold';fill:#fff">Financial Control</tspan></text></g></g></g></g></g></g></g></svg>