<svg xmlns="http://www.w3.org/2000/svg" width="64" height="64" viewBox="0 0 16.933 16.933"><g style="stroke-width:.26499999"><path d="M9.075-6.322a.848.848 0 0 0-.279-.179.848.848 0 0 0-.643 0 .848.848 0 0 0-.281.18l-2.538 2.54a.851.851 0 0 0 1.2 1.2l1.094-1.1v3.04a.848.848 0 0 0 1.693 0v-3.04l1.091 1.1a.848.848 0 0 0 1.204 0 .848.848 0 0 0 0-1.2zm-.602-5.324A8.467 8.467 0 1 0 16.94-3.18a8.467 8.467 0 0 0-8.467-8.467Zm0 15.238a6.774 6.774 0 1 1 6.778-6.771 6.774 6.774 0 0 1-6.775 6.771Z" style="fill:#00ac00;stroke-width:.84799993" transform="matrix(.99994 0 0 .99994 -.006 11.646)"/></g></svg>